<svg width="134" height="121" viewBox="0 0 134 121" fill="none" xmlns="http://www.w3.org/2000/svg">
<path d="M7.71866 53.7381C-6.85264 50.8896 12.8016 110.269 12.8016 110.269C12.8016 110.269 73.1202 120.786 91.08 115.527C109.04 110.269 127 57.025 127 57.025C127 57.025 117.512 7.28667 109.04 15.1747C100.568 23.0627 12.8016 4 12.8016 4C12.8016 4 -16.0021 42.1254 12.8016 33.58C41.6054 25.0347 68.0368 38.4005 68.0368 38.4005C68.0368 38.4005 75.8312 60.75 87.3526 66.2278C98.8739 71.7056 71.7648 94.0547 71.7648 94.0547H39.2333C39.2333 94.0547 31.4394 83.9756 39.2333 76.9641C47.0271 69.9527 60.9209 67.5422 68.0368 62.9408C75.1532 58.3395 60.9209 46.7267 60.9209 46.7267C60.9209 46.7267 22.29 56.5866 7.71866 53.7381Z" fill="#E3582D"/>
</svg>
